<?xml version="1.0" standalone="no"?><!DOCTYPE svg PUBLIC "-//W3C//DTD SVG 1.1//EN" "http://www.w3.org/Graphics/SVG/1.1/DTD/svg11.dtd"><svg t="1754625570729" class="icon" viewBox="0 0 1024 1024" version="1.1" xmlns="http://www.w3.org/2000/svg" p-id="1652" xmlns:xlink="http://www.w3.org/1999/xlink" width="200" height="200"><path d="M384 554.666667c0-70.58 57.42-128 128-128s128 57.42 128 128-57.42 128-128 128-128-57.42-128-128z m7.333333 120.666666a171.48 171.48 0 0 1-29.626666-39.68L93.266667 170.733333A53.4 53.4 0 0 0 42.666667 224v458.666667h356.453333q-3.986667-3.526667-7.786667-7.333334z m-25-209.7L536.666667 170.666667h-30a10.713333 10.713333 0 0 1-8.533334-4.266667L453.333333 106.666667a53.58 53.58 0 0 0-42.666666-21.333334H272a53.58 53.58 0 0 0-42.666667 21.333334l-44.8 59.733333A10.713333 10.713333 0 0 1 176 170.666667h-33.506667L344.666667 520.84a168.726667 168.726667 0 0 1 21.666666-55.206667zM928 170.666667H585.9L457.653333 392.8A170.973333 170.973333 0 0 1 512 384h298.666667v-64a21.333333 21.333333 0 0 1 42.666666 0v64h128V224a53.393333 53.393333 0 0 0-53.333333-53.333333z m-416 554.666666H42.666667v160a53.393333 53.393333 0 0 0 53.333333 53.333334h342.1l128.246667-222.133334A170.973333 170.973333 0 0 1 512 725.333333z m112.88-298.666666q4 3.526667 7.8 7.333333a171.48 171.48 0 0 1 29.626667 39.68l268.426666 464.933333A53.4 53.4 0 0 0 981.333333 885.333333V426.666667z m32.786667 217.033333L487.366667 938.666667h394.14L679.333333 588.493333a168.726667 168.726667 0 0 1-21.666666 55.206667z" fill="#5C5C66" p-id="1653"></path></svg>